<svg width="24" height="24" viewBox="0 0 24 24" fill="none" xmlns="http://www.w3.org/2000/svg">
<path d="M12.5 1.375C14.2259 1.375 15.625 2.77411 15.625 4.5V9.875H17.375V8.5C17.375 7.87868 17.8787 7.375 18.5 7.375C19.1213 7.375 19.625 7.87868 19.625 8.5V9.875H22.5C23.1213 9.875 23.625 10.3787 23.625 11C23.625 11.6213 23.1213 12.125 22.5 12.125H19.625V14.5C19.625 16.2259 18.2259 17.625 16.5 17.625C14.7741 17.625 13.375 16.2259 13.375 14.5V12.125H11.625V19C11.625 20.7259 10.2259 22.125 8.5 22.125C6.77411 22.125 5.375 20.7259 5.375 19V12.125H4C1.99797 12.125 0.375 10.502 0.375 8.5C0.375 6.49797 1.99797 4.875 4 4.875C6.00203 4.875 7.625 6.49797 7.625 8.5V9.875H9.375V4.5C9.375 2.77411 10.7741 1.375 12.5 1.375ZM7.625 19C7.625 19.4832 8.01675 19.875 8.5 19.875C8.98325 19.875 9.375 19.4832 9.375 19V12.125H7.625V19ZM15.625 14.5C15.625 14.9832 16.0168 15.375 16.5 15.375C16.9832 15.375 17.375 14.9832 17.375 14.5V12.125H15.625V14.5ZM4 7.125C3.24061 7.125 2.625 7.74061 2.625 8.5C2.625 9.25939 3.24061 9.875 4 9.875H5.375V8.5C5.375 7.74061 4.75939 7.125 4 7.125ZM12.5 3.625C12.0168 3.625 11.625 4.01675 11.625 4.5V9.875H13.375V4.5C13.375 4.01675 12.9832 3.625 12.5 3.625Z" fill="#F1F4F5"/>
</svg>
