<svg width="24" height="24" viewBox="0 0 24 24" fill="none" xmlns="http://www.w3.org/2000/svg">
<path d="M15.4873 0.250001C16.0474 0.244447 16.5434 0.612648 16.7002 1.15039L19.9375 12.25H22.5C23.1904 12.25 23.75 12.8096 23.75 13.5C23.75 14.1904 23.1904 14.75 22.5 14.75H19.9375C18.8264 14.75 17.8482 14.0168 17.5371 12.9502L15.5449 6.12207L11.707 20.3262C11.5616 20.8643 11.0769 21.2412 10.5195 21.25C9.96226 21.2587 9.46605 20.8974 9.30371 20.3643L6.83887 12.2656L6.47461 13.1787C6.09488 14.1277 5.17547 14.75 4.15332 14.75H1.5C0.809644 14.75 0.25 14.1904 0.25 13.5C0.25 12.8096 0.809644 12.25 1.5 12.25H4.15332L5.50879 8.86133L5.56445 8.73731C6.15876 7.53725 7.91994 7.6122 8.41016 8.8584L8.45508 8.98633L10.4287 15.4707L14.293 1.17383L14.3242 1.07422C14.5003 0.587288 14.9623 0.255331 15.4873 0.250001Z" fill="#292C39"/>
</svg>
