<svg width="19" height="22" viewBox="0 0 19 22" fill="none" xmlns="http://www.w3.org/2000/svg">
<path d="M16.8691 0C18.5493 0 19.4808 1.94645 18.4268 3.25488L15.7851 6.53418C15.3521 7.07177 14.565 7.15664 14.0273 6.72363C13.4897 6.29057 13.4049 5.50344 13.8379 4.96582L15.8242 2.5H4.09667L16.0762 11.7607C16.6223 12.183 16.7229 12.9685 16.3008 13.5146C15.8786 14.0608 15.093 14.1614 14.5469 13.7393L1.40917 3.58203C-0.0992128 2.41539 0.72574 3.17935e-05 2.63281 0H16.8691Z" fill="#292C39"/>
<path d="M2.0039 21.5C0.323742 21.5 -0.60773 19.5535 0.446282 18.2451L3.08788 14.9658C3.52094 14.4282 4.30808 14.3434 4.8457 14.7764C5.38329 15.2094 5.46816 15.9966 5.03515 16.5342L3.04882 19L14.7519 19L2.67578 9.74219C2.12794 9.32214 2.02431 8.53711 2.44433 7.98926C2.86437 7.44142 3.6494 7.33779 4.19726 7.75781L17.4424 17.9131C18.9591 19.076 18.1369 21.5 16.2256 21.5L2.0039 21.5Z" fill="#292C39"/>
</svg>
