<svg viewBox="0 0 256 256" xmlns="http://www.w3.org/2000/svg">
  <!-- Official Attio logo - geometric shapes on dark background -->
  <rect width="256" height="256" rx="48" fill="#1E1E1E"/>
  
  <!-- Left shape: Rounded parallelogram -->
  <path d="M56 180L80 76c4-16 18-28 35-28h0c20 0 35 18 31 38L122 180c-4 16-18 28-35 28h0c-20 0-35-18-31-38z" 
        fill="#F5F5F5"/>
  
  <!-- Right shape: Hexagon outline -->
  <path d="M165 48l35 20c8 5 13 14 13 23v40c0 9-5 18-13 23l-35 20c-8 5-17 5-25 0l-35-20c-8-5-13-14-13-23V91c0-9 5-18 13-23l35-20c8-5 17-5 25 0z" 
        fill="none" 
        stroke="#F5F5F5" 
        stroke-width="12"/>
</svg>