<svg xmlns="http://www.w3.org/2000/svg" viewBox="0 0 512 512" fill="none">
  <defs>
    <linearGradient id="canva-brand-gradient" x1="0%" y1="0%" x2="100%" y2="100%">
      <stop offset="0%" stop-color="#00C4CC"/>
      <stop offset="100%" stop-color="#7D2AE8"/>
    </linearGradient>
  </defs>
  <rect width="512" height="512" rx="102" fill="url(#canva-brand-gradient)"/>
  <path fill="#FFFFFF" d="M256 136c-66.3 0-120 53.7-120 120s53.7 120 120 120c36.8 0 69.8-16.6 91.8-42.7 5.6-6.6 4.7-16.5-1.9-22.1-6.6-5.6-16.5-4.7-22.1 1.9-15.4 18.2-38.3 29.8-63.8 29.8-46.9 0-85-38.1-85-85s38.1-85 85-85c25.5 0 48.4 11.6 63.8 29.8 5.6 6.6 15.5 7.5 22.1 1.9 6.6-5.6 7.5-15.5 1.9-22.1-22-26.1-55-42.6-91.8-42.6z"/>
</svg>
