<svg fill="none" height="113" viewBox="0 0 150 113" width="150" xmlns="http://www.w3.org/2000/svg" xmlns:xlink="http://www.w3.org/1999/xlink"><linearGradient id="a"><stop offset="0" stop-color="#6420ff"/><stop offset="1" stop-color="#6420ff" stop-opacity="0"/></linearGradient><radialGradient id="b" cx="0" cy="0" gradientTransform="matrix(25.15789928 -29.36840381 29.36840381 25.15789928 59.6579 64.5964)" gradientUnits="userSpaceOnUse" r="1" xlink:href="#a"/><radialGradient id="c" cx="0" cy="0" gradientTransform="matrix(25.19733006 35.59207538 -35.59207538 25.19733006 63.2368 25.965)" gradientUnits="userSpaceOnUse" r="1"><stop offset="0" stop-color="#00c4cc"/><stop offset="1" stop-color="#00c4cc" stop-opacity="0"/></radialGradient><radialGradient id="d" cx="0" cy="0" gradientTransform="matrix(26.92103511 -27.10528575 12.46609289 12.38135349 59.6579 64.5964)" gradientUnits="userSpaceOnUse" r="1" xlink:href="#a"/><linearGradient id="e"><stop offset="0" stop-color="#00c4cc" stop-opacity=".725916"/><stop offset=".0001" stop-color="#00c4cc"/><stop offset="1" stop-color="#00c4cc" stop-opacity="0"/></linearGradient><radialGradient id="f" cx="0" cy="0" gradientTransform="matrix(15.68416134 36.10521692 -60.48415147 26.27440772 70.4474 27.0176)" gradientUnits="userSpaceOnUse" r="1" xlink:href="#e"/><radialGradient id="g" cx="0" cy="0" gradientTransform="matrix(27.7343879 31.73825199 -53.16867106 46.46130315 51.8555 21.6968)" gradientUnits="userSpaceOnUse" r="1" xlink:href="#e"/><rect height="111.562" rx="9.5" stroke="#394c60" stroke-opacity=".15" width="149" x=".5" y=".5"/><path d="m59.665 91.1772v1.4493l-6.0088-2.5567v-1.2646l6.0088-2.5567v1.4493l-4.1084 1.6679v.1436zm8.3604 3.2471c-.9662 0-1.7363-.2073-2.3106-.6221-.5696-.4192-.941-1.0071-1.1142-1.7636l1.1826-.5332.1572.0273c.155.515.392.8978.711 1.1485.3235.246.777.3691 1.3603.3691.597 0 1.0596-.1755 1.3877-.5264.3327-.3509.499-.8659.499-1.5449 0-.6836-.164-1.2008-.4922-1.5518-.3235-.3554-.7679-.5332-1.333-.5332-.4329 0-.7906.0912-1.0732.2735-.278.1777-.5195.4489-.7246.8135l-1.2852-.1026.1983-5.5918h5.7695v1.3262h-4.4297l-.1025 2.9326.1435.0274c.237-.3236.5196-.5674.8477-.7315.3327-.1641.7314-.2461 1.1963-.2461.5833 0 1.0915.1299 1.5244.3897.4329.2597.7679.6425 1.0049 1.1484.2415.5059.3623 1.1165.3623 1.832 0 .7201-.1413 1.3399-.4238 1.8594-.278.5195-.6791.916-1.2032 1.1895-.5195.2734-1.137.4101-1.8525.4101zm9.1123 0c-.7747 0-1.4606-.1777-2.0576-.5332-.5925-.36-1.0596-.9228-1.4014-1.6885-.3372-.7656-.5058-1.7386-.5058-2.9189s.1686-2.1533.5058-2.919c.3418-.7656.8089-1.3261 1.4014-1.6816.597-.36 1.2829-.54 2.0576-.54s1.4583.18 2.0508.54c.597.3555 1.0641.916 1.4013 1.6816.3418.7657.5127 1.7387.5127 2.919s-.1709 2.1533-.5127 2.9189c-.3372.7657-.8043 1.3285-1.4013 1.6885-.5925.3555-1.2761.5332-2.0508.5332zm0-1.3808c.5104 0 .9365-.1208 1.2783-.3623.3464-.2416.6107-.6381.793-1.1895.1868-.5514.2803-1.2874.2803-2.208s-.0935-1.6566-.2803-2.208c-.1823-.556-.4466-.9525-.793-1.1895-.3418-.2415-.7679-.3623-1.2783-.3623-.515 0-.9456.1208-1.292.3623-.3418.237-.6061.6335-.793 1.1895-.1823.5514-.2734 1.2874-.2734 2.208s.0911 1.6566.2734 2.208c.1869.5514.4535.9479.7998 1.1895.3464.2415.7748.3623 1.2852.3623zm6.1045 4.2929v-10.5957h1.5039v1.0528l.1435.0273c.2553-.4147.5811-.7223.9776-.9229.3965-.2005.8499-.3007 1.3603-.3007.6198 0 1.1599.1435 1.6202.4306.4602.2871.818.7246 1.0732 1.3125.2552.5834.3828 1.308.3828 2.1739 0 .8613-.1367 1.5836-.4101 2.167-.2689.5833-.6426 1.0208-1.1211 1.3125-.474.2871-1.0232.4306-1.6475.4306-.4876 0-.916-.0843-1.2852-.2529-.3691-.1686-.6858-.4375-.9502-.8067l-.1435.0274v3.9443zm3.4932-4.2177c.6516 0 1.1484-.2074 1.4902-.6221.3463-.4193.5195-1.0801.5195-1.9824 0-.9069-.1732-1.57-.5195-1.9893-.3418-.4193-.8386-.6289-1.4902-.6289-.6062 0-1.0915.2165-1.4561.6494-.3646.433-.5469 1.0892-.5469 1.9688 0 .875.1823 1.5289.5469 1.9619.3646.4284.8499.6426 1.4561.6426zm6.0292 1.1621h-1.6132l2.2422-3.9102-2.126-3.6299h1.6406l1.5244 2.6865h.1572l1.5313-2.6865h1.5791l-2.0645 3.6299 2.1807 3.9102h-1.6338l-1.6406-2.9737h-.1572z" fill="#000"/><path d="m50 39.7918c0-6.9015 0-10.3522 1.3644-12.9788 1.1498-2.2134 2.9545-4.0181 5.1678-5.1678 2.6266-1.3644 6.0774-1.3644 12.9788-1.3644h10.978c6.9014 0 10.3521 0 12.9788 1.3644 2.2131 1.1497 4.0182 2.9544 5.1678 5.1678 1.3644 2.6266 1.3644 6.0773 1.3644 12.9788v10.9779c0 6.9015 0 10.3522-1.3644 12.9789-1.1496 2.2131-2.9547 4.0182-5.1678 5.1678-2.6267 1.3644-6.0774 1.3644-12.9788 1.3644h-10.978c-6.9014 0-10.3522 0-12.9788-1.3644-2.2133-1.1496-4.018-2.9547-5.1678-5.1678-1.3644-2.6267-1.3644-6.0774-1.3644-12.9789z" fill="#c4c4c4"/><path d="m100 20.2808h-50v50h50z" fill="#7d2ae7"/><path d="m100 20.2808h-50v50h50z" fill="url(#b)"/><path d="m100 20.2808h-50v50h50z" fill="url(#c)"/><path d="m100 20.2808h-50v50h50z" fill="url(#d)"/><path d="m100 20.2808h-50v50h50z" fill="url(#f)"/><path d="m100 20.2808h-50v50h50z" fill="url(#g)"/><path d="m85.0696 49.9902c-.176 0-.331.1487-.4922.4734-1.8208 3.692-4.9655 6.3043-8.6046 6.3043-4.2078 0-6.8136-3.7984-6.8136-9.046 0-8.8889 4.9526-14.0282 9.3027-14.0282 2.0327 0 3.2741 1.2774 3.2741 3.3102 0 2.4127-1.3707 3.6901-1.3707 4.541 0 .382.2376.6132.7087.6132 1.8928 0 4.1144-2.175 4.1144-5.2476 0-2.9792-2.593-5.169-6.943-5.169-7.1892 0-13.5784 6.665-13.5784 15.887 0 7.1384 4.0763 11.8555 10.3658 11.8555 6.6756 0 10.5356-6.6418 10.5356-8.7976 0-.4774-.2441-.6962-.4988-.6962z" fill="#fff"/></svg>