<svg xmlns="http://www.w3.org/2000/svg" viewBox="0 0 100 100" width="100" height="100">
  <defs>
    <radialGradient id="canva-gradient" cx="0.3" cy="0.3" r="0.8">
      <stop offset="0%" stop-color="#00C4CC"/>
      <stop offset="50%" stop-color="#7D2AE8"/>
      <stop offset="100%" stop-color="#6420FF"/>
    </radialGradient>
  </defs>
  <rect x="10" y="10" width="80" height="80" rx="16" fill="url(#canva-gradient)"/>
  <path d="M70.1 49.99c-.18 0-.33.15-.49.47-1.82 3.69-4.97 6.3-8.6 6.3-4.21 0-6.82-3.8-6.82-9.05 0-8.89 4.95-14.03 9.3-14.03 2.03 0 3.27 1.28 3.27 3.31 0 2.41-1.37 3.69-1.37 4.54 0 .38.24.61.71.61 1.89 0 4.11-2.18 4.11-5.25 0-2.98-2.59-5.17-6.94-5.17-7.19 0-13.58 6.67-13.58 15.89 0 7.14 4.08 11.86 10.37 11.86 6.68 0 10.54-6.64 10.54-8.8 0-.48-.24-.7-.5-.7z" fill="#fff"/>
</svg>