<svg xmlns="http://www.w3.org/2000/svg" viewBox="0 0 512 512" fill="none">
  <rect width="512" height="512" rx="102" fill="#FFCC22"/>
  <path fill="#1A1A1A" d="M256 116c-77.3 0-140 62.7-140 140s62.7 140 140 140 140-62.7 140-140-62.7-140-140-140zm0 230c-49.7 0-90-40.3-90-90s40.3-90 90-90 90 40.3 90 90-40.3 90-90 90z"/>
  <path fill="#1A1A1A" d="M300 236h-34v-34c0-5.5-4.5-10-10-10s-10 4.5-10 10v34h-34c-5.5 0-10 4.5-10 10s4.5 10 10 10h34v34c0 5.5 4.5 10 10 10s10-4.5 10-10v-34h34c5.5 0 10-4.5 10-10s-4.5-10-10-10z"/>
</svg>