<svg width="512" height="512" viewBox="0 0 512 512" fill="none" xmlns="http://www.w3.org/2000/svg">
  <rect width="512" height="512" rx="102" fill="white"/>
  <g transform="translate(76, 76) scale(3.2)">
    <!-- DocuSign Nexus Icon - Official brand colors -->
    <path d="M93.0581 93.0581V125.982C93.0581 127.718 91.6505 129.126 89.9145 129.126H3.16459C1.42863 129.126 0.020996 127.718 0.020996 125.982V39.2107C0.020996 37.4747 1.42863 36.0671 3.16459 36.0671H36.0892V89.7149C36.0892 91.4509 37.4968 92.8585 39.2328 92.8585H93.0585L93.0581 93.0581Z" fill="#4C00FF"/>
    <path d="M129.126 46.4109C129.126 74.1599 112.955 92.8581 93.0141 93.0171V58.0769C93.0141 57.0777 92.6115 56.1196 91.9053 55.4134L73.7172 37.2253C73.011 36.5191 72.0529 36.1165 71.0537 36.1165H36.1133V3.16459C36.1133 1.42863 37.5209 0.020996 39.2569 0.020996H88.1271C111.258 0.020996 129.126 18.6618 129.126 46.4109Z" fill="#FF5252"/>
    <path d="M91.9055 55.4134C92.6117 56.1196 93.0143 57.0777 93.0143 58.0769V93.0177H39.233C37.497 93.0177 36.0894 91.6101 36.0894 89.8741V36.0894H71.0298C72.029 36.0894 72.9871 36.492 73.6933 37.1982L91.9055 55.4134Z" fill="#1A1A1A"/>
  </g>
</svg>