<svg xmlns="http://www.w3.org/2000/svg" viewBox="0 0 87.3 78" fill="none">
  <path d="M6.6 66.85l3.85 6.65c.8 1.4 1.95 2.5 3.3 3.3l13.75-23.8H0c0 1.55.4 3.1 1.2 4.5l5.4 9.35z" fill="#0066DA"/>
  <path d="M43.65 25.15L29.9 1.35c-1.35.8-2.5 1.9-3.3 3.3L1.2 48.2c-.8 1.4-1.2 2.95-1.2 4.5h27.5l16.15-27.55z" fill="#00AC47"/>
  <path d="M73.55 76.8c1.35-.8 2.5-1.9 3.3-3.3l1.6-2.75 7.65-13.25c.8-1.4 1.2-2.95 1.2-4.5H59.8l6.75 11.65 7 12.15z" fill="#EA4335"/>
  <path d="M43.65 25.15L57.4 1.35C56.05.55 54.5 0 52.85 0H34.44c-1.65 0-3.2.55-4.55 1.35l13.76 23.8z" fill="#00832D"/>
  <path d="M59.8 53h-32.3L13.75 76.8c1.35.8 2.9 1.2 4.55 1.2h36.7c1.65 0 3.2-.45 4.55-1.2L59.8 53z" fill="#2684FC"/>
  <path d="M73.4 26.5l-12.7-22c-.8-1.4-1.95-2.5-3.3-3.3L43.65 25.15 59.8 53h27.5c0-1.55-.4-3.1-1.2-4.5L73.4 26.5z" fill="#FFBA00"/>
</svg>
