<svg viewBox="0 0 24 24" xmlns="http://www.w3.org/2000/svg">
  <path fill="#FF7A59" d="M17.09 11.24V8.03c.59-.29.99-.89.99-1.59 0-.97-.79-1.76-1.76-1.76s-1.76.79-1.76 1.76c0 .7.41 1.3.99 1.59v3.21c-.72.13-1.38.45-1.92.92l-5.66-4.4c.04-.16.06-.33.06-.5 0-1.21-.98-2.19-2.19-2.19S3.65 6.05 3.65 7.26s.98 2.19 2.19 2.19c.43 0 .83-.13 1.17-.34l5.51 4.29c-.43.65-.69 1.43-.69 2.27 0 2.28 1.85 4.13 4.13 4.13s4.13-1.85 4.13-4.13c0-2.09-1.56-3.82-3.57-4.1l-.43-.33zm-.77 6.52c-1.34 0-2.43-1.09-2.43-2.43s1.09-2.43 2.43-2.43 2.43 1.09 2.43 2.43-1.09 2.43-2.43 2.43z"/>
</svg>
