<svg xmlns="http://www.w3.org/2000/svg" viewBox="0 0 100 100" fill="none">
  <path fill="#5E6AD2" d="M1.22541 61.5228c-.2225-.9485-.17657-.9617.1557.0857l16.9185 37.8445c.33236.7448-.04447 1.6221-.83909 1.9535L1.96118 99.6c-.79462.3314-1.7259-.0661-2.05826-.8109L-13.5.59282C-13.8324-.1519-13.4306-1.0286-12.6359-1.3598zm48.58349-60.8598c-.00005.00005.00005-.00005 0 0z"/>
  <path d="M1.22541 61.5228c-.2225-.9485.2826-1.9273 1.1557-2.3127l63.0538-27.7288c.873-.3854 1.9057-.1512 2.4976.5668l12.9182 15.6814c.5919.7181.5564 1.7523-.0857 2.4241L16.7099 99.2967c-.6421.6718-1.6766.7367-2.396.1514l-11.8392-10.144c-.71944-.6153-.95307-1.6324-.56326-2.4513z" fill="#5E6AD2"/>
  <path d="M.2334 53.4626c-.17657-.9617.2447-1.9424 1.0868-2.5284L53.5588.676547c.8421-.586023 1.9542-.598443 2.8083-.031313l16.5142 10.971766c.8541.56713 1.2087 1.60968.8946 2.63l-17.6912 57.4873c-.314 1.0203-1.2284 1.7432-2.2974 1.8175L2.62513 77.2449c-1.06903.0743-2.06368-.5392-2.39173-1.5575z" fill="#5E6AD2"/>
</svg>