<svg viewBox="0 0 52 52" xmlns="http://www.w3.org/2000/svg">
  <circle cx="26" cy="26" r="26" fill="#FFE01B"/>
  <g fill="#241C15">
    <!-- Freddie head silhouette -->
    <path d="M26 10c-8.8 0-16 7.2-16 16s7.2 16 16 16 16-7.2 16-16-7.2-16-16-16zm-4.5 22c-1.4 0-2.5-1.1-2.5-2.5s1.1-2.5 2.5-2.5 2.5 1.1 2.5 2.5-1.1 2.5-2.5 2.5zm9 0c-1.4 0-2.5-1.1-2.5-2.5s1.1-2.5 2.5-2.5 2.5 1.1 2.5 2.5-1.1 2.5-2.5 2.5zm3.5 4c-.4.6-1.2 1.5-2.5 2.2-1.8 1-4 1.3-5.5 1.3s-3.7-.3-5.5-1.3c-1.3-.7-2.1-1.6-2.5-2.2-.2-.3-.1-.7.2-.9.3-.2.7-.1.9.2.3.5 1 1.2 2 1.8 1.5.8 3.4 1.1 4.9 1.1s3.4-.3 4.9-1.1c1-.5 1.7-1.3 2-1.8.2-.3.6-.4.9-.2.3.2.4.6.2.9z"/>
    <!-- Wink eye -->
    <ellipse cx="21.5" cy="24" rx="1.2" ry="0.4"/>
  </g>
</svg>