<svg xmlns="http://www.w3.org/2000/svg" viewBox="0 0 100 100" fill="none">
  <path d="M6.017 4.313l55.333-4.087c6.797-.583 8.543-.19 12.817 2.917l17.663 12.443c2.913 2.14 3.883 2.723 3.883 5.053v68.243c0 4.277-1.553 6.807-6.99 7.193l-64.323 3.893c-4.077.193-6.03-.39-8.177-3.113L3.34 79.94c-2.33-3.117-3.34-5.443-3.34-8.163V11.113c0-3.5 1.553-6.413 6.017-6.8z" fill="#fff"/>
  <path fill-rule="evenodd" clip-rule="evenodd" d="M61.35.227l-55.333 4.087C1.553 4.7 0 7.613 0 11.113v60.663c0 2.723 1.01 5.05 3.34 8.167l12.883 16.913c2.147 2.723 4.1 3.307 8.177 3.113l64.323-3.893c5.437-.387 6.99-2.917 6.99-7.193V20.64c0-2.21-.873-2.847-3.443-4.733L74.167 3.143C69.893.033 68.147-.357 61.35.227zM25.663 30.04c-5.203.287-6.38.35-9.353-1.997l-6.627-5.247c-.777-.583-.39-1.36 1.167-1.553l53.093-3.893c4.473-.39 6.8 1.167 8.54 2.53l7.587 5.443c.387.193.97.97.193.97l-54.82 3.36v.387zm-6.8 67.533V40.2c0-2.53.777-3.697 3.113-3.893l63.347-3.697c2.143-.193 3.11 1.167 3.11 3.693v56.987c0 2.53-.387 4.67-3.887 4.863l-60.62 3.5c-3.5.193-5.063-.97-5.063-4.08zm59.663-55.833c.387 1.75 0 3.5-1.75 3.697l-2.917.577v42.2c-2.53 1.36-4.86 2.14-6.8 2.14-3.113 0-3.887-.97-6.217-3.887l-19.03-29.927v28.953l6.023 1.36s0 3.5-4.857 3.5l-13.397.777c-.39-.777 0-2.723 1.357-3.11l3.497-.97V44.867l-4.857-.387c-.387-1.75.583-4.277 3.307-4.473l14.367-.97 19.8 30.32V42.527l-5.053-.583c-.39-2.143 1.163-3.693 3.103-3.887l13.423-.777z" fill="#000"/>
</svg>