<svg xmlns="http://www.w3.org/2000/svg" viewBox="0 0 48 48">
  <circle cx="24" cy="24" r="24" fill="#FF4500"/>
  <path fill="#fff" d="M40 24c0-1.7-1.3-3-3-3-.8 0-1.5.3-2.1.8-2-1.4-4.8-2.3-7.9-2.4l1.4-6.4 4.4 1c.1 1.3 1.2 2.3 2.5 2.3 1.4 0 2.5-1.1 2.5-2.5S36.7 11.3 35.3 11.3c-1 0-1.8.6-2.2 1.4l-4.9-1.1c-.3-.1-.6.1-.6.4l-1.5 7.2c-3.2.1-6.1 1-8.1 2.4-.6-.5-1.3-.8-2.1-.8-1.7 0-3 1.3-3 3 0 1.2.7 2.2 1.7 2.7-.1.4-.1.8-.1 1.2 0 6.1 7.1 11 15.8 11s15.8-4.9 15.8-11c0-.4 0-.8-.1-1.2.9-.5 1.5-1.5 1.5-2.7zM18 27c0-1.4 1.1-2.5 2.5-2.5s2.5 1.1 2.5 2.5-1.1 2.5-2.5 2.5S18 28.4 18 27zm13.9 6.8c-1.7 1.7-4.9 1.8-5.9 1.8s-4.2-.1-5.9-1.8c-.2-.2-.2-.5 0-.7.2-.2.5-.2.7 0 1.1 1.1 3.4 1.5 5.2 1.5s4.1-.4 5.2-1.5c.2-.2.5-.2.7 0 .2.2.2.5 0 .7zm-.4-4.3c-1.4 0-2.5-1.1-2.5-2.5s1.1-2.5 2.5-2.5 2.5 1.1 2.5 2.5-1.1 2.5-2.5 2.5z"/>
</svg>