<svg viewBox="0 0 60 25" xmlns="http://www.w3.org/2000/svg">
  <path fill="#635BFF" d="M59.64 14.28h-8.06c.19 1.93 1.6 2.55 3.2 2.55 1.64 0 2.96-.37 4.05-.95v3.32a8.33 8.33 0 0 1-4.56 1.1c-4.01 0-6.83-2.5-6.83-7.48 0-4.19 2.39-7.52 6.3-7.52 3.92 0 5.96 3.28 5.96 7.5 0 .4-.02 1.04-.06 1.48zm-5.92-5.62c-1.03 0-1.93.76-2.13 2.58h4.18c0-1.53-.68-2.58-2.05-2.58zM40.95 20.3c-1.44 0-2.32-.6-2.9-1.04l-.02 4.63-4.12.87V5.57h3.76l.1 1.02a4.7 4.7 0 0 1 3.26-1.29c2.87 0 5.15 2.91 5.15 7.36 0 5.24-2.59 7.64-5.23 7.64zm-.63-11.87c-.93 0-1.53.31-2.05.79l.02 5.93c.49.46 1.08.8 2.03.8 1.61 0 2.48-1.82 2.48-3.87 0-1.98-.88-3.65-2.48-3.65zM28.24 5.57h4.13v14.44h-4.13V5.57zm0-5.13L32.37 0v3.36l-4.13.88V.44zm-4.32 9.35v10.23H19.8V5.57h3.7l.12 1.22c1-1.47 3.08-1.56 3.7-1.49v3.92c-.56-.06-2.22-.16-3.4 1.57zM13.2 7.87l-.26-2.3h-3.6v14.44h4.12V11.5c.95-1.36 2.63-1.14 3.14-.94V6.24c-.52-.17-2.48-.55-3.4 1.63zM3.94 1.98l4.02-.85.01 11.96c0 2.94 2.27 4.7 5.04 4.7.9 0 1.88-.17 2.31-.35v-3.3c-.41.15-2.45.62-2.45-1.64V9.02h2.45V5.57H12.87l.02-3.33-4.02.85-.02 2.48H6.71v3.45h2.14v5.18c0 3.48 1.87 5.53 5.27 5.53 1.54 0 2.98-.33 3.94-.86V5.58c-1.14.4-2.41.68-3.8.68-3.54 0-6.4-1.94-6.4-5.58 0-.57.08-1.12.08-1.7z" fill-rule="evenodd"/>
</svg>