<svg viewBox="0 0 2228.833 2073.333" xmlns="http://www.w3.org/2000/svg">
  <path fill="#5059C9" d="M1554.637 777.5h575.713c54.391 0 98.483 44.092 98.483 98.483v524.398c0 199.656-161.838 361.494-361.494 361.494h-.105c-199.656.005-361.499-161.833-361.499-361.489V878.402c0-55.72 45.182-100.902 100.902-100.902z"/>
  <circle fill="#5059C9" cx="1943.75" cy="440.583" r="233.25"/>
  <circle fill="#7B83EB" cx="1218.083" cy="336.917" r="336.917"/>
  <path fill="#7B83EB" d="M1667.323 777.5H717.01c-53.743 0-97.319 43.576-97.319 97.319v535.873c0 253.547 205.503 459.05 459.05 459.05s459.05-205.503 459.05-459.05V874.819c0-53.743-43.576-97.319-97.319-97.319z"/>
  <path d="M1244 777.5v838.145c0 50.203-28.47 96.135-73.463 118.391-17.627 8.738-36.972 13.263-56.607 13.263H649.191c-12.991-34.871-24.102-70.818-32.882-107.637-10.467-43.96-16.141-89.64-16.141-136.69V874.819c0-53.743 43.576-97.319 97.319-97.319h546.513z" opacity=".1"/>
  <path d="M1192.167 777.5v889.978c0 19.635-4.525 38.979-13.263 56.607-22.256 45.097-68.283 73.567-118.496 73.567H696.028c-15.755-34.871-29.63-70.818-40.976-107.637-12.991-34.871-24.102-70.818-32.882-107.637-10.467-43.96-16.141-89.64-16.141-136.69V874.819c0-53.743 43.576-97.319 97.319-97.319h489.819z" opacity=".2"/>
  <path d="M1192.167 777.5v786.312c0 65.56-53.139 118.699-118.699 118.699H622.17c-10.467-43.96-16.141-89.64-16.141-136.69V874.819c0-53.743 43.576-97.319 97.319-97.319h489.819z" opacity=".2"/>
  <path d="M1140.333 777.5v786.312c0 65.56-53.139 118.699-118.699 118.699H622.17c-10.467-43.96-16.141-89.64-16.141-136.69V874.819c0-53.743 43.576-97.319 97.319-97.319h437.985z" opacity=".2"/>
  <linearGradient id="teams-gradient" gradientUnits="userSpaceOnUse" x1="203.514" y1="1729.009" x2="967.987" y2="404.657">
    <stop offset="0" stop-color="#5a62c3"/>
    <stop offset=".5" stop-color="#4d55bd"/>
    <stop offset="1" stop-color="#3940ab"/>
  </linearGradient>
  <path fill="url(#teams-gradient)" d="M118.699 777.5h902.935c65.56 0 118.699 53.139 118.699 118.699v902.935c0 65.56-53.139 118.699-118.699 118.699H118.699C53.139 1917.833 0 1864.694 0 1799.134V896.199C0 830.639 53.139 777.5 118.699 777.5z"/>
  <path fill="#FFF" d="M521.589 1159.526H387.678v402.391H291.69v-402.391H158.044v-83.602h363.545v83.602z"/>
</svg>