<svg fill="#026CDF" role="img" viewBox="0 0 24 24" xmlns="http://www.w3.org/2000/svg">
  <title>Ticketmaster</title>
  <path d="M14.5153 11.3333c-.2454 0-.4826.0464-.716.1304l-.0776.4499c.2168-.105.4499-.1681.6912-.1681.1924 0 .4214.063.4214.2817 0 .063 0 .126-.0163.185h-.1923c-.5153 0-1.2924.0546-1.2924.7697 0 .3994.2699.6181.6502.6181.3026 0 .4909-.1388.679-.3828h.0082l-.0574.3324h.4624c.0491-.408.2576-1.2576.2576-1.5477 0-.5088-.3966-.6686-.818-.6686zm-.3805 1.8546c-.139 0-.2781-.0758-.2781-.2272 0-.3658.4418-.412.7076-.412h.1922c-.0857.349-.2125.6392-.6217.6392zm-8.647-.7826l.656 1.1947h-.6391l-.563-1.1647h-.0084L4.688 13.6h-.5546l.6731-3.2h.567l-.3767 1.8007h.0085l.7915-.798h.7366L5.488 12.4053zm3.8071.746c.0947 0 .1894-.0216.2562-.0517l-.0907.4485c-.0905.0216-.193.052-.2837.052-.3587 0-.6111-.1554-.6111-.5825 0-.1725.0316-.3407.067-.5175l.1498-.7506H8.4l.0828-.4228h.3824l.0907-.4574.5677-.2026-.1301.66h.4732l-.0828.4226h-.4734l-.193.9707a.9992.9992 0 00-.0236.2156c0 .1339.0826.2157.201.2157zm-8.4 0c.0947 0 .1894-.0216.2564-.0517l-.0906.4485c-.0908.0216-.1934.052-.284.052-.3587 0-.6111-.1554-.6111-.5825 0-.1725.0316-.3407.067-.5175l.1498-.7506H0l.0827-.4228h.3826l.0907-.4574.5675-.2026-.1302.66h.4734l-.0828.4226H.9107l-.1931.9707a1.004 1.004 0 00-.0237.2156c0 .1339.0828.2157.201.2157zm2.1018-.5521c0 .2816.0937.5633.4858.5633.1406 0 .3154-.0378.4644-.1093l-.0638.4459c-.1747.084-.3623.101-.5498.101-.5668 0-.9333-.3742-.9333-.9337 0-.757.5072-1.333 1.2956-1.333.213 0 .4176.0378.571.084l-.1406.4626c-.111-.0715-.26-.1093-.4176-.1093-.456 0-.7117.4205-.7117.8285zm-.4574-1.6433h-.61l.1276-.556h.6098l-.1274.556zm-.0956.408L1.9432 13.6h-.6099l.5006-2.236h.6098zm18.3563.7937c0 .164-.0199.3236-.0515.4836h-1.2524c.001-.1027.0094-.2168.0564-.387h.7276a.9136.9136 0 00.012-.1471c0-.2314-.1152-.3616-.3373-.3616-.3133 0-.4579.1904-.56.466a1.2249 1.2249 0 00-.0864.4297h-.4596c0-.701.4047-1.3303 1.0755-1.3303.4793 0 .876.2741.876.8467zm.0197.9222c.0947 0 .1894-.0216.2564-.0517l-.0908.4485c-.0906.0216-.1931.052-.2838.052-.3586 0-.6112-.1554-.6112-.5825 0-.1725.0318-.3407.0672-.5175l.1497-.7506h-.3824l.0829-.4228h.3824l.0907-.4574.5676-.2026-.1302.66h.4735l-.0829.4226h-.4733l-.1931.9707a1.015 1.015 0 00-.0237.2156c0 .1339.0829.2157.2010.2157zm2.2972-1.9268c-.2454 0-.4826.0464-.716.1304l-.0776.4499c.2168-.105.4499-.1681.6912-.1681.1924 0 .4214.063.4214.2817 0 .063 0 .126-.0163.185h-.1924c-.5152 0-1.2923.0546-1.2923.7697 0 .3994.2698.6181.6501.6181.3027 0 .4909-.1388.679-.3828h.0082l-.0574.3324h.4624c.0491-.408.2576-1.2576.2576-1.5477 0-.5088-.3966-.6686-.8179-.6686zm-.3806 1.8546c-.1389 0-.278-.0758-.278-.2272 0-.3658.4417-.412.7076-.412h.1922c-.0857.349-.2126.6392-.6218.6392zm-3.9385-1.8049l-.5006 2.236h-.4735l.0491-.3193h-.0082c-.1484.2604-.3667.3697-.6591.3697-.4007 0-.6384-.239-.6384-.6445 0-.1427.0409-.365.0653-.487l.2475-1.1549h.5548l-.2168 1.023c-.0324.1596-.0655.3193-.0655.4238 0 .2057.1316.3322.3239.3322.3418 0 .5676-.3029.6545-.6654l.227-1.1136h.5400zm4.5568 0l-.5006 2.236h-.4735l.0491-.3193h-.0082c-.1483.2604-.3667.3697-.6591.3697-.4007 0-.6383-.239-.6383-.6445 0-.1427.0408-.365.0652-.487l.2475-1.1549h.5548l-.2168 1.023c-.0324.1596-.0655.3193-.0655.4238 0 .2057.1317.3322.3240.3322.3417 0 .5675-.3029.6544-.6654l.227-1.1136h.54zm-6.5698.3916c-.1154-.0674-.1481-.1259-.1481-.215 0-.1347.1234-.2014.2386-.2014.1071 0 .2058.0339.2961.0925l.1153-.3697c-.1234-.0674-.2877-.1137-.4603-.1137-.3946 0-.7152.2353-.7152.5877 0 .2353.1317.3744.3289.4757l.1726.0886c.1234.0632.1726.1306.1726.2236 0 .1261-.1152.2357-.2795.2357-.1398 0-.2713-.0508-.3946-.1393l-.1234.3826c.1398.1009.3372.1607.5263.1607.4354 0 .7807-.2437.7807-.6477 0-.2141-.1071-.3743-.3205-.4799l-.1895-.0804zm3.0757-.7866c-.1234-.0252-.2632-.0505-.4194-.0505-.4683 0-.8301.1643-.8301.5968 0 .2733.1643.4164.377.5003l.1479.0589c.1316.0547.2221.0883.2221.2014 0 .1515-.1398.23-.3782.23a1.5002 1.5002 0 01-.4603-.0715l-.0655.3993c.1316.0335.3125.0716.5098.0716.5427 0 .9126-.1852.9126-.6269 0-.2564-.1316-.4164-.4111-.5297l-.1644-.0673c-.1316-.0547-.1971-.0926-.1971-.1979 0-.1178.1152-.185.3125-.185.1316 0 .2878.0295.402.0632l.0422-.3947z"/>
</svg>