<svg xmlns="http://www.w3.org/2000/svg" viewBox="0 0 512 512" fill="none">
  <rect width="512" height="512" rx="102" fill="#E44332"/>
  <path fill="#FFF" d="M102 369l54 31c6 3 13 3 19 0l235-136c13-7 13-25 0-32l-16-9c-6-3-13-3-19 0l-200 115-54-31c-6-3-13-3-19 0l-16 9c-13 7-13 25 0 32z"/>
  <path fill="#FFF" d="M102 271l54 31c6 3 13 3 19 0l235-136c13-7 13-25 0-32l-16-9c-6-3-13-3-19 0l-200 115-54-31c-6-3-13-3-19 0l-16 9c-13 7-13 25 0 32z"/>
  <path fill="#FFF" d="M102 173l54 31c6 3 13 3 19 0l235-136c13-7 13-25 0-32l-16-9c-6-3-13-3-19 0l-200 115-54-31c-6-3-13-3-19 0l-16 9c-13 7-13 25 0 32z"/>
</svg>
