<svg xmlns="http://www.w3.org/2000/svg" viewBox="0 0 24 24" fill="none">
  <path fill="#E44332" d="M21 0H3a3 3 0 0 0-3 3v18a3 3 0 0 0 3 3h18a3 3 0 0 0 3-3V3a3 3 0 0 0-3-3z"/>
  <path fill="#FFF" d="M5.41 15.81l2.92 1.68a.42.42 0 0 0 .42 0l9.84-5.67a.84.84 0 0 0 0-1.46l-.86-.5a.42.42 0 0 0-.42 0l-8.56 4.94-2.06-1.19a.42.42 0 0 0-.42 0l-.86.5a.84.84 0 0 0 0 1.46v.24z"/>
  <path fill="#FFF" d="M5.41 12.18l2.92 1.68a.42.42 0 0 0 .42 0l9.84-5.67a.84.84 0 0 0 0-1.46l-.86-.5a.42.42 0 0 0-.42 0l-8.56 4.94-2.06-1.19a.42.42 0 0 0-.42 0l-.86.5a.84.84 0 0 0 0 1.46v.24z"/>
</svg>