<svg xmlns="http://www.w3.org/2000/svg" viewBox="0 0 175.216 175.552">
  <defs>
    <linearGradient id="whatsapp-gradient" x1="85.915" x2="86.535" y1="32.567" y2="137.092" gradientUnits="userSpaceOnUse">
      <stop offset="0" stop-color="#57d163"/>
      <stop offset="1" stop-color="#23b33a"/>
    </linearGradient>
  </defs>
  <path fill="url(#whatsapp-gradient)" d="M87.184 14.3A73.2 73.2 0 0 0 14 87.5a72.6 72.6 0 0 0 10.7 38l-11.4 41.6 42.6-11.2a73.4 73.4 0 0 0 31.3 7.1 73.2 73.2 0 0 0 73.2-73.2 72.8 72.8 0 0 0-21.5-51.8A72.7 72.7 0 0 0 87.2 14.3"/>
  <path fill="#fff" fill-rule="evenodd" d="M126.8 49.2a58.4 58.4 0 0 0-92.3 70.8l-3 11 11.3-3a58.4 58.4 0 0 0 84-66.8zM87.1 131.5a48.5 48.5 0 0 1-24.7-6.8l-1.8-1-18.4 4.8 4.9-18-1.2-1.8a48.6 48.6 0 1 1 41.2 22.8zm26.6-36.4c-1.5-.7-8.7-4.3-10-4.8s-2.3-.7-3.3.7-3.8 4.8-4.7 5.8-1.7.8-3.2.3a40.2 40.2 0 0 1-11.8-7.3 44.5 44.5 0 0 1-8.2-10.2c-.9-1.5-.1-2.3.6-3 .7-.7 1.5-1.7 2.2-2.5s1-1.4 1.5-2.4.3-1.8-.1-2.5-3.3-7.9-4.5-10.8-2.4-2.5-3.3-2.5h-2.8a5.4 5.4 0 0 0-3.9 1.8 16.4 16.4 0 0 0-5.1 12.2c0 7.2 5.3 14.2 6 15.2s10.4 15.9 25.2 22.3a84.7 84.7 0 0 0 8.4 3.1 20.2 20.2 0 0 0 9.3.6c2.8-.4 8.7-3.5 9.9-7s1.2-6.4 0.8-7-.9-.7-2.4-1.5z" clip-rule="evenodd"/>
</svg>
